<svg width="42" height="42" viewBox="0 0 42 42" fill="none" xmlns="http://www.w3.org/2000/svg">
<path d="M1.93 42.25L40.57 42.25C41.4993 42.25 42.25 41.4993 42.25 40.57L42.25 1.93C42.25 1.00075 41.4993 0.250001 40.57 0.250001L1.93 0.250001C1.00075 0.250001 0.250001 1.00075 0.250001 1.93L0.250001 40.57C0.250001 41.4993 1.00075 42.25 1.93 42.25ZM11.17 19.99C11.17 19.759 11.359 19.57 11.59 19.57H19.57V11.59C19.57 11.359 19.759 11.17 19.99 11.17H22.51C22.741 11.17 22.93 11.359 22.93 11.59V19.57L30.91 19.57C31.141 19.57 31.33 19.759 31.33 19.99L31.33 22.51C31.33 22.741 31.141 22.93 30.91 22.93L22.93 22.93L22.93 30.91C22.93 31.141 22.741 31.33 22.51 31.33L19.99 31.33C19.759 31.33 19.57 31.141 19.57 30.91L19.57 22.93H11.59C11.359 22.93 11.17 22.741 11.17 22.51V19.99Z" fill="#861410"/>
</svg>
