<svg width="21" height="19" viewBox="0 0 21 19" fill="none" xmlns="http://www.w3.org/2000/svg">
<path d="M8.25002 18.5C7.65328 18.5 7.08099 18.2629 6.65903 17.841C6.23708 17.419 6.00002 16.8467 6.00002 16.25C6.00002 15.6533 6.23708 15.081 6.65903 14.659C7.08099 14.2371 7.65328 14 8.25002 14C8.84676 14 9.41905 14.2371 9.84101 14.659C10.263 15.081 10.5 15.6533 10.5 16.25C10.5 16.8467 10.263 17.419 9.84101 17.841C9.41905 18.2629 8.84676 18.5 8.25002 18.5ZM16.125 18.5C15.5283 18.5 14.956 18.2629 14.534 17.841C14.1121 17.419 13.875 16.8467 13.875 16.25C13.875 15.6533 14.1121 15.081 14.534 14.659C14.956 14.2371 15.5283 14 16.125 14C16.7218 14 17.2941 14.2371 17.716 14.659C18.138 15.081 18.375 15.6533 18.375 16.25C18.375 16.8467 18.138 17.419 17.716 17.841C17.2941 18.2629 16.7218 18.5 16.125 18.5ZM1.45727 2.66337C1.17643 2.65432 0.910119 2.53638 0.714659 2.33452C0.519198 2.13265 0.409912 1.86268 0.409912 1.58169C0.409912 1.3007 0.519198 1.03072 0.714659 0.828857C0.910119 0.62699 1.17643 0.509058 1.45727 0.5L2.75215 0.5C3.7669 0.5 4.6444 1.20425 4.8649 2.19425L6.27452 8.5415C6.49502 9.5315 7.37252 10.2357 8.38727 10.2357L16.8383 10.2357L18.4605 3.7445L7.9474 3.7445C7.6692 3.7318 7.4066 3.61236 7.21422 3.411C7.02183 3.20964 6.91448 2.94186 6.91448 2.66337C6.91448 2.38488 7.02183 2.11711 7.21422 1.91575C7.4066 1.71439 7.6692 1.59494 7.9474 1.58225L18.4605 1.58225C18.7894 1.58215 19.114 1.65704 19.4096 1.80121C19.7051 1.94539 19.964 2.15506 20.1664 2.41428C20.3687 2.67351 20.5094 2.97546 20.5775 3.2972C20.6457 3.61893 20.6396 3.95197 20.5598 4.271L18.9375 10.76C18.8206 11.2282 18.5504 11.6439 18.17 11.9409C17.7896 12.2379 17.3209 12.3992 16.8383 12.3991L8.38727 12.3991C7.40267 12.3993 6.44746 12.0636 5.67941 11.4475C4.91136 10.8314 4.37641 9.9718 4.1629 9.01062L2.75215 2.66337L1.45727 2.66337Z" fill="#CCCCCC"/>
</svg>
