<svg width="18" height="18" viewBox="0 0 18 18" fill="none" xmlns="http://www.w3.org/2000/svg">
<path d="M10.6442 12.2327C9.267 13.212 7.57215 13.638 5.8956 13.4265C4.21905 13.215 2.68314 12.3812 1.59228 11.0905C0.501424 9.79983 -0.0647738 8.14639 0.00590156 6.45788C0.0765769 4.76937 0.778967 3.16903 1.97387 1.97403C3.16877 0.779032 4.76897 0.0765833 6.45734 0.00590206C8.14571 -0.0647791 9.79902 0.501466 11.0896 1.59242C12.3802 2.68337 13.2139 4.2194 13.4254 5.89609C13.6369 7.57278 13.2109 9.26777 12.2317 10.6451L17.6425 16.0549C17.7529 16.1577 17.8414 16.2817 17.9028 16.4195C17.9642 16.5573 17.9972 16.7061 17.9998 16.8569C18.0025 17.0077 17.9747 17.1575 17.9183 17.2974C17.8618 17.4373 17.7777 17.5643 17.671 17.671C17.5644 17.7777 17.4373 17.8618 17.2975 17.9182C17.1576 17.9747 17.0078 18.0025 16.857 17.9998C16.7062 17.9972 16.5574 17.9642 16.4197 17.9028C16.2819 17.8414 16.1579 17.7528 16.0551 17.6425L10.6442 12.2327ZM11.2328 6.73906C11.2328 5.54739 10.7594 4.40454 9.91688 3.56191C9.07432 2.71927 7.93156 2.24589 6.73999 2.24589C5.54843 2.24589 4.40567 2.71927 3.56311 3.56191C2.72054 4.40454 2.2472 5.54739 2.2472 6.73906C2.2472 7.93072 2.72054 9.07357 3.56311 9.91621C4.40567 10.7588 5.54843 11.2322 6.73999 11.2322C7.93156 11.2322 9.07432 10.7588 9.91688 9.91621C10.7594 9.07357 11.2328 7.93072 11.2328 6.73906Z" fill="#CCCCCC"/>
</svg>
