<svg width="20" height="20" viewBox="0 0 23 23" fill="none" xmlns="http://www.w3.org/2000/svg">
<path d="M5.65687 14.8492L9.1924 11.3137L5.65687 7.77817C5.37556 7.49687 5.21753 7.11534 5.21753 6.71751C5.21753 6.31969 5.37556 5.93816 5.65687 5.65685C5.93817 5.37555 6.3197 5.21751 6.71753 5.21751C7.11535 5.21751 7.49688 5.37555 7.77819 5.65685L11.3137 9.19239L14.8493 5.65685C15.1306 5.37555 15.5121 5.21751 15.9099 5.21751C16.3077 5.21751 16.6893 5.37555 16.9706 5.65685C17.2519 5.93816 17.4099 6.31969 17.4099 6.71751C17.4099 7.11534 17.2519 7.49687 16.9706 7.77817L13.435 11.3137L16.9706 14.8492C17.2519 15.1305 17.4099 15.5121 17.4099 15.9099C17.4099 16.3077 17.2519 16.6893 16.9706 16.9706C16.6893 17.2519 16.3077 17.4099 15.9099 17.4099C15.5121 17.4099 15.1306 17.2519 14.8493 16.9706L11.3137 13.435L7.77819 16.9706C7.49688 17.2519 7.11535 17.4099 6.71753 17.4099C6.3197 17.4099 5.93817 17.2519 5.65687 16.9706C5.37556 16.6893 5.21753 16.3077 5.21753 15.9099C5.21753 15.5121 5.37556 15.1305 5.65687 14.8492Z" fill="#CCCCCC"/>
</svg>
