<svg width="42" height="42" viewBox="0 0 42 42" fill="none" xmlns="http://www.w3.org/2000/svg">
<path fill-rule="evenodd" clip-rule="evenodd" d="M20.625 0C32.0156 0 41.25 9.23438 41.25 20.625C41.25 32.0156 32.0156 41.25 20.625 41.25C9.23438 41.25 0 32.0156 0 20.625C0 9.23438 9.23438 0 20.625 0ZM18.75 28.125C18.75 28.6223 18.9475 29.0992 19.2992 29.4508C19.6508 29.8025 20.1277 30 20.625 30C21.1223 30 21.5992 29.8025 21.9508 29.4508C22.3025 29.0992 22.5 28.6223 22.5 28.125V22.5L28.125 22.5C28.6223 22.5 29.0992 22.3025 29.4508 21.9508C29.8025 21.5992 30 21.1223 30 20.625C30 20.1277 29.8025 19.6508 29.4508 19.2992C29.0992 18.9475 28.6223 18.75 28.125 18.75L22.5 18.75L22.5 13.125C22.5 12.6277 22.3025 12.1508 21.9508 11.7992C21.5992 11.4475 21.1223 11.25 20.625 11.25C20.1277 11.25 19.6508 11.4475 19.2992 11.7992C18.9475 12.1508 18.75 12.6277 18.75 13.125L18.75 18.75H13.125C12.6277 18.75 12.1508 18.9475 11.7992 19.2992C11.4475 19.6508 11.25 20.1277 11.25 20.625C11.25 21.1223 11.4475 21.5992 11.7992 21.9508C12.1508 22.3025 12.6277 22.5 13.125 22.5H18.75V28.125Z" fill="#861410"/>
</svg>
