<svg width="25" height="25" viewBox="0 0 25 25" fill="none" xmlns="http://www.w3.org/2000/svg">
<path d="M12.5 0C5.59375 0 0 5.59375 0 12.5C0 18.0312 3.57812 22.7031 8.54687 24.3594C9.17187 24.4688 9.40625 24.0938 9.40625 23.7656C9.40625 23.4688 9.39063 22.4844 9.39063 21.4375C6.25 22.0156 5.4375 20.6719 5.1875 19.9687C5.04687 19.6094 4.4375 18.5 3.90625 18.2031C3.46875 17.9687 2.84375 17.3906 3.89063 17.375C4.875 17.3594 5.57813 18.2812 5.8125 18.6562C6.9375 20.5469 8.73438 20.0156 9.45313 19.6875C9.5625 18.875 9.89062 18.3281 10.25 18.0156C7.46875 17.7031 4.5625 16.625 4.5625 11.8437C4.5625 10.4844 5.04688 9.35937 5.84375 8.48437C5.71875 8.17187 5.28125 6.89062 5.96875 5.17187C5.96875 5.17187 7.01563 4.84375 9.40625 6.45313C10.4062 6.17188 11.4688 6.03125 12.5313 6.03125C13.5938 6.03125 14.6563 6.17188 15.6563 6.45313C18.0469 4.82813 19.0938 5.17187 19.0938 5.17187C19.7813 6.89062 19.3438 8.17187 19.2188 8.48437C20.0156 9.35937 20.5 10.4687 20.5 11.8437C20.5 16.6406 17.5781 17.7031 14.7969 18.0156C15.25 18.4062 15.6406 19.1563 15.6406 20.3281C15.6406 22 15.625 23.3438 15.625 23.7656C15.625 24.0938 15.8594 24.4844 16.4844 24.3594C18.966 23.5219 21.1224 21.9271 22.65 19.7996C24.1777 17.6721 24.9996 15.1191 25 12.5C25 5.59375 19.4063 0 12.5 0Z" fill="#CCCCCC"/>
</svg>
