<svg width="42" height="42" viewBox="0 0 42 42" fill="none" xmlns="http://www.w3.org/2000/svg">
<path fill-rule="evenodd" clip-rule="evenodd" d="M20.625 0C9.23438 0 0 9.23438 0 20.625C0 32.0156 9.23438 41.25 20.625 41.25C32.0156 41.25 41.25 32.0156 41.25 20.625C41.25 9.23437 32.0156 0 20.625 0ZM29.565 17.1375C29.7296 16.9493 29.8549 16.7301 29.9336 16.4928C30.0123 16.2555 30.0427 16.0048 30.023 15.7556C30.0034 15.5064 29.9341 15.2636 29.8192 15.0415C29.7043 14.8194 29.5462 14.6226 29.3542 14.4625C29.1621 14.3025 28.9399 14.1824 28.7008 14.1095C28.4617 14.0366 28.2104 14.0122 27.9617 14.0378C27.713 14.0634 27.4719 14.1385 27.2526 14.2587C27.0334 14.3788 26.8404 14.5416 26.685 14.7375L18.6225 24.4106L14.4506 20.2369C14.097 19.8953 13.6234 19.7063 13.1317 19.7106C12.6401 19.7149 12.1699 19.9121 11.8222 20.2597C11.4746 20.6074 11.2774 21.0776 11.2731 21.5692C11.2688 22.0609 11.4578 22.5345 11.7994 22.8881L17.4244 28.5131C17.6086 28.6972 17.8292 28.841 18.072 28.9351C18.3149 29.0293 18.5747 29.0718 18.8349 29.06C19.0951 29.0481 19.35 28.9822 19.5833 28.8665C19.8166 28.7507 20.0232 28.5876 20.19 28.3875L29.565 17.1375Z" fill="#B94343"/>
</svg>
